<?xml version="1.0" encoding="UTF-8"?>
<svg width="512px" height="512px" viewBox="0 0 512 512" version="1.1" xmlns="http://www.w3.org/2000/svg" xmlns:xlink="http://www.w3.org/1999/xlink">
    <!-- Generator: Sketch 60 (88103) - https://sketch.com -->
    <title>close</title>
    <desc>Created with Sketch.</desc>
    <g id="Page-1" stroke="none" stroke-width="1" fill="none" fill-rule="evenodd">
        <g id="close" fill="#333333" fill-rule="nonzero">
            <path d="M490.666667,234.666667 C478.890667,234.666667 469.333333,244.224 469.333333,256 C469.333333,373.632 373.632,469.333333 256,469.333333 C138.368,469.333333 42.6666667,373.632 42.6666667,256 C42.6666667,138.368 138.368,42.6666667 256,42.6666667 C313.269333,42.6666667 367.029333,65.0453333 407.381333,105.685333 C415.68,114.037333 429.194667,114.090667 437.546667,105.792 C445.909333,97.4933333 445.952,83.9786667 437.653333,75.616 C389.237333,26.8586667 324.714667,0 256,0 C114.837333,0 0,114.837333 0,256 C0,397.162667 114.837333,512 256,512 C397.152,512 512,397.162667 512,256 C512,244.224 502.442667,234.666667 490.666667,234.666667 Z" id="Path"></path>
            <path d="M286.165333,256 L335.082667,207.082667 C343.413333,198.752 343.413333,185.248 335.082667,176.917333 C326.752,168.586667 313.248,168.586667 304.917333,176.917333 L256,225.834667 L207.082667,176.917333 C198.762667,168.586667 185.237333,168.586667 176.917333,176.917333 C168.586667,185.248 168.586667,198.752 176.917333,207.082667 L225.834667,256 L176.917333,304.917333 C168.586667,313.248 168.586667,326.752 176.917333,335.082667 C181.077333,339.253333 186.538667,341.333333 192,341.333333 C197.461333,341.333333 202.922667,339.253333 207.082667,335.082667 L256,286.165333 L304.917333,335.082667 C309.088,339.253333 314.538667,341.333333 320,341.333333 C325.461333,341.333333 330.912,339.253333 335.082667,335.082667 C343.413333,326.752 343.413333,313.248 335.082667,304.917333 L286.165333,256 Z" id="Path"></path>
        </g>
    </g>
</svg>