<?xml version="1.0" encoding="UTF-8"?>
<svg width="512px" height="460px" viewBox="0 0 512 460" version="1.1" xmlns="http://www.w3.org/2000/svg" xmlns:xlink="http://www.w3.org/1999/xlink">
    <!-- Generator: Sketch 60 (88103) - https://sketch.com -->
    <title>menu</title>
    <desc>Created with Sketch.</desc>
    <g id="Page-1" stroke="none" stroke-width="1" fill="none" fill-rule="evenodd">
        <g id="menu" fill-rule="nonzero">
            <g id="Group" fill="#333333">
                <path d="M479.18,65.897 L32.821,65.897 C14.69,65.897 0,51.207 0,33.077 C0,14.947 14.69,0.256 32.821,0.256 L479.18,0.256 C497.31,0.256 512,14.946 512,33.077 C512,51.208 497.31,65.897 479.18,65.897 Z" id="Path"></path>
                <path d="M295.385,262.821 L32.821,262.821 C14.69,262.821 0,248.13 0,230 C0,211.87 14.69,197.179 32.821,197.179 L295.385,197.179 C313.515,197.179 328.206,211.869 328.206,230 C328.206,248.131 313.515,262.821 295.385,262.821 Z" id="Path"></path>
            </g>
            <path d="M479.18,262.821 L426.667,262.821 C408.537,262.821 393.846,248.131 393.846,230 C393.846,211.869 408.536,197.179 426.667,197.179 L479.18,197.179 C497.31,197.179 512,211.869 512,230 C512,248.131 497.31,262.821 479.18,262.821 Z" id="Path" fill="#F58220"></path>
            <path d="M479.18,459.744 L32.821,459.744 C14.69,459.744 0,445.053 0,426.923 C0,408.793 14.69,394.102 32.821,394.102 L479.18,394.102 C497.31,394.102 512,408.792 512,426.923 C512,445.053 497.31,459.744 479.18,459.744 Z" id="Path" fill="#333333"></path>
        </g>
    </g>
</svg>